<svg width="212" height="48" viewBox="0 0 212 48" fill="none" xmlns="http://www.w3.org/2000/svg">
<path d="M4.75736 14.6542C4.36005 17.2452 2.77339 19.089 0 20.1869V20.0374C1.48668 19.1402 2.37868 18.1914 2.67602 17.1963C1.28672 17.295 0.446003 17.5447 0.148668 17.9439C0.346024 16.7477 0.692048 15.8994 1.18934 15.4019C1.3867 15.2011 2.57604 14.9533 4.75736 14.6542ZM76.7125 22.5794C76.7125 24.0748 76.4151 25.369 75.8205 26.4665C75.2258 27.7615 74.3338 28.4108 73.1445 28.4108C72.3502 28.4108 71.7555 28.3589 71.3604 28.2617C71.3604 28.7593 71.3604 29.2568 71.3604 29.757C71.3604 31.7499 71.1118 32.9951 70.6171 33.4953C66.6518 38.0793 62.9351 40.3738 59.467 40.3738C57.9804 40.3738 56.8397 39.6751 56.0477 38.28C55.353 37.1817 55.007 35.9361 55.007 34.5417C55.007 32.2471 55.5504 29.4064 56.6424 26.0183C55.453 26.9151 53.469 28.7589 50.6956 31.551C47.6223 34.5417 45.3923 36.6355 44.0056 37.8314C41.427 39.8247 39.3456 40.8221 37.7616 40.8221C36.5722 40.8221 35.5316 40.2475 34.6395 39.1024C33.7475 37.9555 33.3015 36.6348 33.3015 35.1394C33.3015 33.3447 33.8962 31.0505 35.0856 28.2613C34.8856 28.3593 34.6396 28.4105 34.3422 28.4105C33.6476 28.4105 33.0529 28.3585 32.5582 28.2613C32.5582 28.7589 32.5582 29.2564 32.5582 29.7566C32.5582 31.7495 32.3582 32.9454 31.9635 33.3454C27.3035 37.9297 23.5382 40.2239 20.6648 40.2239C19.1781 40.2239 18.0375 39.6254 17.2454 38.4288C16.4512 37.2333 16.0561 35.7869 16.0561 34.0923C16.0561 33.4942 16.3021 32.172 16.7994 30.1297C17.2941 28.0849 17.5428 26.3166 17.5428 24.8213C17.5428 23.625 17.3941 22.4774 17.0968 21.3821C15.9074 21.083 14.7181 20.2348 13.5288 18.84C12.3394 17.443 11.5452 16.7462 11.1501 16.7462C10.6531 16.7462 9.86075 17.5925 8.77139 19.2886C7.97676 20.5828 7.28471 21.8796 6.69004 23.1761C8.96874 24.3723 10.1094 26.9634 10.1094 30.9514H9.36606C8.27447 30.4531 7.23342 29.9065 6.24404 29.3084C5.25243 28.6101 4.75736 27.563 4.75736 26.1686C2.47643 27.2647 1.33801 28.76 1.33801 30.6546C1.33801 30.8531 2.30435 33.145 4.23703 37.5327C6.16971 41.9178 7.13604 45.4067 7.13604 48H6.83871C6.63875 46.4037 5.5007 43.4624 3.41935 39.1768C1.53536 35.1892 0.59467 32.2991 0.59467 30.5047C0.59467 27.911 2.13003 25.5185 5.20337 23.3271C5.59845 22.0303 6.59006 20.2852 8.17672 18.0935C9.96073 15.4998 11.3965 14.2056 12.4881 14.2056C12.8832 14.2056 13.8261 15.1028 15.3128 16.8972C15.1128 16.397 15.0154 15.8994 15.0154 15.4019C15.0154 14.105 15.4614 13.0093 16.3534 12.1122C17.2454 11.215 18.3348 10.766 19.6241 10.766C20.6139 10.766 22.5466 11.2385 25.4222 12.1869C28.2955 13.1327 30.8229 13.6075 33.0042 13.6075L31.2202 16.5981C29.8313 16.7966 27.6013 17.6938 24.5302 19.2897C21.8541 20.6841 19.6241 21.3832 17.8401 21.3832C17.7401 21.3832 17.5428 21.3832 17.2454 21.3832C17.7405 22.7779 17.9888 24.2733 17.9888 25.8692C17.9888 27.1637 17.8145 28.6101 17.4684 30.2056C17.1198 31.8 16.9481 32.6964 16.9481 32.8976C16.9481 36.0867 18.2348 37.6822 20.8135 37.6822C22.6952 37.6822 24.8762 36.6849 27.3548 34.6916C28.9389 33.3948 30.4256 32.0497 31.8149 30.6546C31.8149 29.9559 31.4176 28.8598 30.6255 27.3645C30.2282 26.4673 29.7822 25.5701 29.2875 24.6733L30.3282 22.1312C31.2202 23.526 31.8636 24.4722 32.2609 24.972C32.9533 25.6684 33.6966 26.0194 34.4909 26.0194C35.4806 26.0194 36.2749 25.6202 36.8696 24.8232C36.8696 23.3279 36.7696 21.8815 36.5722 20.4864L34.0449 4.63626C33.9449 3.64075 33.7475 2.89308 33.4502 2.39327L34.1935 0.299439L36.8696 5.23364V6.13084L35.5316 4.78505C35.4316 4.98617 35.4316 5.18467 35.5316 5.38355L37.7616 20.486C37.8589 20.8834 37.9102 21.5824 37.9102 22.5798C37.9102 25.5705 37.1156 27.4138 35.5316 28.1125C34.5396 30.3043 34.0449 32.2482 34.0449 33.9443C34.0449 34.8415 34.3909 35.6875 35.0856 36.4871C35.8776 37.3839 36.8186 37.8329 37.9102 37.8329C39.6942 37.8329 41.973 36.4871 44.7489 33.7955C47.2254 31.5009 49.704 29.1604 52.1823 26.7675C54.0641 25.1708 55.899 23.8258 57.683 22.7297C57.1857 22.5293 56.4424 21.9821 55.453 21.0852C54.0637 19.9869 53.3717 18.7413 53.3717 17.3469C53.3717 15.0527 54.6097 13.9077 57.0884 13.9077C61.8457 13.9077 66.9982 14.7533 72.5498 16.4497L70.6171 19.4404C68.8331 20.0389 65.6111 21.3331 60.9537 23.3282C61.4484 24.1252 61.9944 26.0198 62.5891 29.0105C59.913 29.0105 58.575 28.2108 58.575 26.6179C58.575 26.4172 58.6237 26.0688 58.7237 25.5712C58.8215 25.0714 58.8724 24.7226 58.8724 24.5245C58.4751 24.8236 57.8808 25.2202 57.0884 25.72C56.0964 28.9092 55.6017 31.3024 55.6017 32.8979C55.6017 36.0871 56.9397 37.6826 59.6157 37.6826C62.4891 37.6826 66.1571 35.3394 70.6171 30.655C70.5171 29.9563 70.1202 28.8602 69.4278 27.3649C68.9308 26.566 68.4848 25.72 68.0898 24.8228L68.9818 22.1312C69.8738 23.6265 70.5658 24.5727 71.0631 24.972C71.6578 25.6684 72.4011 26.0194 73.2931 26.0194C74.2825 26.0194 75.0771 25.6202 75.6718 24.8232C75.5718 23.3279 75.4232 21.8815 75.2258 20.4864L72.8471 4.78542C72.6472 3.68972 72.4498 2.89271 72.2525 2.39327L72.9958 0.299439L75.5231 5.23402V6.13121L74.3338 4.78505C74.2338 5.08449 74.2338 5.33458 74.3338 5.53271L76.5638 20.486C76.6616 20.883 76.7125 21.5817 76.7125 22.5794ZM10.2581 9.27103C10.2581 10.9649 9.71208 11.8135 8.62272 11.8135C7.63074 11.8135 7.13604 11.2639 7.13604 10.1686C7.13604 9.46991 7.28471 8.6243 7.58205 7.62654C8.17672 6.43028 8.47405 5.73383 8.47405 5.53271C8.67141 6.33234 8.72047 6.87888 8.62272 7.17757C9.71208 7.7757 10.2581 8.47439 10.2581 9.27103ZM9.81206 9.86916C9.41475 9.36935 8.82045 9.02056 8.02805 8.82243C7.63074 9.21981 7.43338 9.46916 7.43338 9.57009C7.43338 10.1682 7.7794 10.4673 8.47405 10.4673C8.96874 10.4673 9.41475 10.2662 9.81206 9.86916ZM13.8261 34.5421L12.7854 36.1862C12.1907 36.3847 11.5452 36.535 10.8527 36.6351C9.76077 37.0325 9.21739 37.4811 9.21739 37.9813C9.71245 39.9742 9.96073 41.3693 9.96073 42.1679C9.96073 43.9626 9.90981 45.0093 9.81206 45.3077C9.81206 44.2093 9.6121 42.7656 9.21739 40.9712C8.82045 39.1761 8.62272 38.0295 8.62272 37.532C8.62272 36.6351 8.9431 36.0366 9.58906 35.7376C10.2324 35.4378 10.8527 35.188 11.4474 34.9899C11.0505 34.6901 10.7041 34.5413 10.4067 34.5413L9.51473 35.289V34.5413C9.81206 34.1417 10.0581 33.7679 10.2581 33.4198C10.4554 33.0692 10.7041 32.8968 11.0014 32.8968C11.5961 32.8972 12.5368 33.4437 13.8261 34.5421ZM15.0154 27.0654L13.8261 29.4572L11.2987 28.2617L12.1907 26.1682L9.96073 24.9716L11.0014 22.5798L13.6774 23.7761L12.6367 25.8692L15.0154 27.0654ZM27.6522 15.5514C27.0575 15.4505 25.6686 15.1028 23.4895 14.5043C21.7055 13.9065 20.3162 13.6075 19.3268 13.6075C17.0455 13.6075 15.9074 14.4535 15.9074 16.1495C15.9074 16.8456 16.1538 17.5443 16.6508 18.243C17.0459 18.6404 17.5428 18.8415 18.1374 18.8415C19.5241 18.8415 21.1108 18.4419 22.8948 17.6452C25.7682 16.348 27.3548 15.6493 27.6522 15.5514ZM28.9902 26.9159C27.5035 30.7032 25.6195 32.5981 23.3408 32.5981C21.6546 32.5981 20.8135 31.7993 20.8135 30.2056C20.8135 28.9088 21.9028 27.5637 24.0842 26.1686C23.6872 25.8692 23.2899 25.7196 22.8948 25.7196C22.3979 25.7196 21.9028 25.9675 21.4081 26.4673V25.8692C21.9028 24.7708 22.5975 24.2243 23.4895 24.2243C24.9762 24.2243 26.1655 24.4228 27.0575 24.8232L25.2735 26.4669C24.5788 26.6654 23.8099 27.1144 22.9691 27.8135C22.1258 28.5095 21.7055 29.1077 21.7055 29.6078C21.7055 30.505 22.4975 30.9536 24.0842 30.9536C25.1739 30.9536 26.2632 30.3555 27.3548 29.1596C27.8495 28.3596 28.3955 27.612 28.9902 26.9159ZM31.6662 6.57944C31.6662 7.77533 31.2689 8.37383 30.4769 8.37383C30.0795 8.37383 29.6822 8.17533 29.2875 7.77533C28.9902 8.57495 28.5442 8.97159 27.9495 8.97159C27.2549 8.97159 26.9088 8.52299 26.9088 7.62579C26.9088 7.02729 26.9088 6.42953 26.9088 5.8314C26.7089 6.03252 26.4628 6.33121 26.1655 6.72822V6.13009C26.3629 5.63252 26.8579 4.98505 27.6522 4.18617C27.3548 6.27963 27.5522 7.32636 28.2468 7.32636C28.7415 7.32636 28.9902 6.97794 28.9902 6.27925C28.9902 5.98019 28.8902 5.38243 28.6928 4.48486L29.1388 3.58879C29.4362 4.0886 29.6339 4.83626 29.7335 5.83178C29.7335 6.53047 29.9799 6.8785 30.4769 6.8785C30.7742 6.8785 30.9229 6.63065 30.9229 6.13084L30.4769 4.18692L31.0715 3.14019C31.4666 4.43701 31.6662 5.5843 31.6662 6.57944ZM40.1403 32.2991C40.0403 33.6935 39.5456 34.3929 38.6536 34.3929C37.7616 34.3929 37.3156 33.9439 37.3156 33.0467C37.3156 31.7499 38.008 30.2546 39.3969 28.5607C38.7023 30.1544 38.3562 31.3013 38.3562 32C38.3562 32.6957 38.6023 33.0467 39.0996 33.0467C39.5943 33.0467 39.8916 32.7966 39.9916 32.2991H40.1403ZM43.1136 23.6262C43.1136 25.7193 42.865 27.3133 42.3703 28.4112H42.0729C42.1703 26.2172 42.0729 23.9252 41.7756 21.5331L39.0996 4.63589C38.9996 3.64037 38.8022 2.89271 38.5049 2.3929L39.2482 0.299065L41.7756 5.23364V6.13084L40.5863 4.78467C40.4863 4.98579 40.4863 5.1843 40.5863 5.38318L42.9649 21.3832C43.0623 21.8807 43.1136 22.6284 43.1136 23.6262ZM49.8036 4.93458C49.8036 5.33383 49.655 5.78318 49.3576 6.28037C49.0603 5.98131 48.8117 5.83215 48.6143 5.83215C48.1174 5.83215 47.7223 6.53084 47.425 7.92561C47.225 8.8228 47.0763 9.81832 46.979 10.9163C46.6816 10.117 46.1847 9.07028 45.4923 7.77608C45.3923 8.27664 45.095 8.52374 44.6003 8.52374C43.8057 8.52374 43.4109 8.07551 43.4109 7.17794C43.4109 6.08187 43.7573 5.53308 44.4516 5.53308C45.3436 5.53308 46.1356 6.58019 46.8303 8.67327C47.425 5.08449 48.1683 3.29009 49.0603 3.29009C49.555 3.28972 49.8036 3.83888 49.8036 4.93458ZM49.9523 13.3084C49.555 15.9996 48.0196 17.8434 45.3436 18.8411L45.1949 18.6916C46.6816 17.7948 47.5736 16.8456 47.871 15.8505C46.482 15.9488 45.641 16.1985 45.3436 16.5981C45.541 15.4019 45.887 14.5536 46.3843 14.0561C46.5816 13.8553 47.771 13.6075 49.9523 13.3084ZM49.8036 22.5794L48.6143 24.9712L46.087 23.7757L47.2763 21.3832L49.8036 22.5794ZM52.4797 38.5794C52.4797 39.9742 51.9824 40.6733 50.993 40.6733C50.101 40.6733 49.655 40.225 49.655 39.3271C49.655 38.0303 50.347 36.535 51.7363 34.8411H51.885C51.0904 36.4348 50.6956 37.5821 50.6956 38.2804C50.6956 38.9764 50.9421 39.3271 51.439 39.3271C51.934 39.3271 52.231 39.0774 52.331 38.5794H52.4797ZM55.1557 6.57944C55.1557 7.77533 54.9074 9.1215 54.4123 10.6168C54.5101 9.81794 54.561 8.92299 54.561 7.92523C54.561 6.13084 54.015 4.73607 52.9257 3.73832L53.0743 1.94393C53.7668 2.34318 54.2871 3.04224 54.6353 4.03738C54.9814 5.03514 55.1557 5.88299 55.1557 6.57944ZM67.4951 18.3925C64.7191 17.1963 61.4971 16.5981 57.8317 16.5981C56.0477 16.5981 54.8583 16.7966 54.2637 17.1963C54.2637 17.3948 54.907 17.9675 56.1964 18.9163C57.4831 19.8621 58.575 20.7854 59.467 21.6822C61.5484 20.6845 64.2244 19.5888 67.4951 18.3925ZM70.7658 1.49533C70.7658 2.09383 70.5915 2.79252 70.2454 3.58916C69.8968 4.38804 69.4765 4.98579 68.9818 5.38355C69.5764 4.18729 69.8738 3.34168 69.8738 2.8415C64.8191 4.43738 60.2104 7.12897 56.0477 10.9163C56.1454 10.4161 56.245 9.9185 56.345 9.42093C58.0291 7.7271 60.2847 6.13122 63.1094 4.63589C65.9341 3.14019 68.4848 2.09346 70.7658 1.49533ZM67.0491 27.8131C67.2464 28.6101 67.0491 29.0583 66.4544 29.1593C66.1571 29.2576 65.7111 29.0583 65.1164 28.5607C64.7191 29.2568 64.0757 30.2049 63.1837 31.4022C62.0918 32.6964 60.6564 33.4961 58.8724 33.7944L57.5344 34.0935C58.9211 33.3948 60.4568 32.3974 62.1431 31.1028C63.5298 30.0045 64.4704 28.9088 64.9677 27.8131C65.3628 27.0138 65.7111 26.5656 66.0084 26.4665C66.5031 26.3671 66.8491 26.8153 67.0491 27.8131ZM68.2384 10.0187C68.2384 11.215 67.8411 11.8135 67.0491 11.8135C66.6518 11.8135 66.2548 11.5634 65.8597 11.0658C65.5624 11.8624 65.1164 12.2617 64.5217 12.2617C63.9271 12.2617 63.5784 11.8628 63.4811 11.0658C63.4811 10.3671 63.4811 9.71963 63.4811 9.12187C63.2815 9.42093 63.0841 9.72 62.8864 10.0187V9.57009C62.9838 9.07028 63.4298 8.42505 64.2244 7.62617C63.9271 9.61944 64.1244 10.6168 64.8191 10.6168C65.3141 10.6168 65.5624 10.3178 65.5624 9.71963C65.5624 9.42056 65.4624 8.77383 65.2651 7.7757L65.8597 7.02804C66.0571 7.42766 66.2058 8.12635 66.3057 9.12187C66.3057 9.81832 66.5522 10.1686 67.0491 10.1686C67.3464 10.1686 67.4951 9.96748 67.4951 9.57047C67.4951 9.46953 67.3464 8.8228 67.0491 7.62654L67.6438 6.43028C68.0388 7.72673 68.2384 8.92299 68.2384 10.0187ZM66.7518 28.2617C66.3544 27.6632 65.9084 27.514 65.4137 27.8131C66.0084 28.2101 66.4544 28.3596 66.7518 28.2617ZM80.2805 34.3925C80.2805 35.3877 79.9832 35.8879 79.3885 35.8879C78.9912 35.8879 78.5452 35.7387 78.0505 35.4389C76.3639 38.5286 73.2418 40.0239 68.6844 39.9249H68.5358V39.7757C72.9958 38.6774 76.0178 37.1331 77.6045 35.1406C77.1076 34.9394 76.8611 34.6404 76.8611 34.2437C76.8611 33.9439 77.0098 33.594 77.3072 33.1963C77.6045 32.7974 77.8505 32.5981 78.0505 32.5981L77.9018 32L78.0505 31.8505C78.2478 31.8505 78.5939 32.049 79.0912 32.4486V32.5981C79.8832 33.4953 80.2805 34.0935 80.2805 34.3925ZM81.9158 23.6262C81.9158 25.7193 81.6676 27.3133 81.1725 28.4112H80.8752C80.9726 26.2172 80.8239 23.9252 80.4292 21.5331L77.9018 4.63589C77.7019 3.64037 77.5045 2.89271 77.3072 2.3929L78.0505 0.299065L80.5778 5.23364V6.13084L79.3885 4.78467C79.2885 4.98579 79.2398 5.1843 79.2398 5.38318L81.7672 21.3832C81.8649 21.8807 81.9158 22.6284 81.9158 23.6262ZM78.6452 33.6449C78.6452 33.4437 78.5452 33.3454 78.3478 33.3454C77.9509 33.3454 77.6532 33.495 77.4558 33.794C77.6532 34.0931 77.9509 34.2916 78.3478 34.3925C78.3478 34.2916 78.3965 34.1679 78.4965 34.0187C78.5939 33.8692 78.6452 33.7428 78.6452 33.6449ZM212 28.1121C212 29.5069 211.677 30.6546 211.033 31.5514C210.388 32.4479 209.67 32.8972 208.878 32.8972C207.391 32.8972 206.35 31.9484 205.756 30.0557C205.359 31.9484 204.515 32.8972 203.228 32.8972C202.039 32.8972 201.245 32.0976 200.85 30.505C200.055 32.3978 198.669 33.3462 196.688 33.3462C195.993 33.3462 195.424 33.0707 194.977 32.5241C194.532 31.975 194.308 31.3507 194.308 30.655C194.308 30.3555 194.308 30.1058 194.308 29.9073C180.333 34.2923 166.061 36.4871 151.492 36.4871C144.453 36.4871 137.566 35.8886 130.827 34.692C124.383 33.6946 119.577 32.3488 116.406 30.655C116.406 32.0493 116.355 33.4445 116.258 34.8415H115.961C114.771 34.0426 114.028 33.0964 113.731 32.0004C113.631 31.2007 113.556 30.4531 113.508 29.7574C113.456 29.0587 112.838 28.7099 111.649 28.7099C110.557 28.7099 108.699 30.3043 106.074 33.4957C103.447 36.6845 101.44 38.2807 100.053 38.2807C99.2587 38.2807 98.5666 37.9069 97.9719 37.1593C97.3773 36.4116 97.0799 35.3884 97.0799 34.0938C97.0799 33.3951 97.2286 32.5473 97.5259 31.5518C97.029 31.7503 96.5343 31.8508 96.0393 31.8508C94.0557 31.8508 92.7686 30.505 92.1739 27.8135C91.974 31.1032 90.4873 32.748 87.7139 32.748C86.5245 32.748 85.6325 32.0983 85.0379 30.8041C84.6409 29.8064 84.4919 28.6594 84.5919 27.3649C84.5919 27.1641 84.6892 26.4677 84.8892 25.2714C84.9869 24.2736 85.0379 23.3764 85.0379 22.5798C84.3432 23.5753 83.8485 24.8722 83.5512 26.4669C83.3516 27.5634 83.1542 28.6587 82.9565 29.7574C82.5592 31.5518 81.9158 32.4482 81.0238 32.4482C80.3292 32.4482 79.7345 31.874 79.2398 30.7286C78.7425 29.5817 78.4965 28.3593 78.4965 27.065C78.4965 25.668 78.5939 24.1237 78.7938 22.4295L79.0912 22.5791C78.9912 23.3757 78.9425 24.1727 78.9425 24.9708C78.9425 28.3589 79.6349 30.0557 81.0238 30.0557C81.5185 30.0557 81.9645 29.308 82.3619 27.8127C83.0539 25.3196 83.4512 23.8733 83.5512 23.4759C84.2436 21.7802 85.1356 20.6348 86.2272 20.037V21.9806C85.8299 24.572 85.6325 26.1679 85.6325 26.766C85.6325 28.957 86.4246 30.0557 88.0112 30.0557C89.001 30.0557 89.8696 29.6561 90.6129 28.8594C91.3562 28.0606 91.7279 27.1144 91.7279 26.0183L90.6872 20.1869L91.4306 18.0935C91.9253 19.089 92.2226 19.8879 92.3226 20.4856C92.6199 22.1794 92.866 23.9249 93.0659 25.7193C93.6606 28.2101 94.75 29.4576 96.3366 29.4576C97.326 29.4576 98.0206 29.0587 98.4179 28.2621C97.921 27.1637 97.4263 26.068 96.9313 24.9716C96.2366 23.1776 95.8393 21.7806 95.7419 20.7854L95.2959 19.7383L95.8906 17.6449L97.9719 20.9346V21.6822C97.6746 21.4811 97.3773 21.2336 97.0799 20.9346C96.98 21.1331 96.98 21.2336 97.0799 21.2336C98.4666 24.4228 99.1613 26.6168 99.1613 27.8135C99.1613 29.6079 98.7643 30.8041 97.9719 31.4026C97.6746 32.3978 97.5259 33.1454 97.5259 33.6456C97.5259 35.04 98.2184 35.7394 99.6073 35.7394C100.894 35.7394 102.827 34.1178 105.405 30.8796C107.981 27.6389 110.014 26.0198 111.501 26.0198C111.995 26.0198 112.69 26.3189 113.582 26.9166L114.325 25.1219C115.712 27.1148 119.826 28.9578 126.665 30.6542C134.493 32.4482 143.464 33.3454 153.574 33.3454C160.412 33.3454 167.943 32.7473 176.171 31.551C183.307 30.4527 189.749 29.1069 195.498 27.5136C195.298 27.8127 195.201 28.16 195.201 28.5604C195.201 29.1589 195.398 29.7054 195.795 30.2045C196.19 30.7024 196.636 30.9521 197.134 30.9521C198.123 30.9521 199.164 30.4523 200.255 29.4568L202.188 27.514L202.337 27.6636C202.337 27.8621 202.337 28.0609 202.337 28.2621C202.337 29.6561 202.831 30.3555 203.823 30.3555C204.318 30.3555 204.864 29.9073 205.458 29.0097C206.15 27.8135 206.647 27.1151 206.945 26.9159H207.093C207.093 27.1144 207.093 27.3133 207.093 27.5144C207.093 28.311 207.365 29.0333 207.911 29.6826C208.455 30.3293 208.975 30.6546 209.472 30.6546C210.462 30.6546 210.959 30.2553 210.959 29.4579C210.959 28.5615 210.215 26.7671 208.729 24.0755C207.142 21.1832 206.299 19.44 206.201 18.8419C206.101 18.6407 205.953 18.3671 205.755 18.0194C205.556 17.6688 205.458 17.4445 205.458 17.3465L205.904 15.1036L208.877 18.2434V18.8411L207.539 18.2426V18.5421C208.331 19.7379 209.123 20.9342 209.917 22.1308C211.305 24.6213 212 26.6168 212 28.1121ZM79.8345 34.8411C79.6349 34.6404 79.3376 34.292 78.9425 33.7944L78.6452 34.5421C78.9425 34.7406 79.2398 34.8411 79.5372 34.8411C79.6349 34.8411 79.7345 34.8411 79.8345 34.8411ZM97.5259 0C97.5259 0.499813 97.326 1.14729 96.9313 1.94393C96.5343 2.7428 96.137 3.39028 95.7419 3.88785C96.3366 2.69159 96.6339 1.79402 96.6339 1.19626C90.4873 3.1914 85.2839 6.13084 81.0238 10.0187C81.0238 9.51888 81.1216 8.97196 81.3212 8.37421C83.0052 6.78093 85.5816 5.08449 89.0519 3.28972C92.3226 1.59589 95.1473 0.499813 97.5259 0ZM91.2819 34.9907C91.2819 35.4882 91.0819 35.9858 90.6872 36.486C90.4873 36.1862 90.2412 36.0374 89.9439 36.0374C89.447 36.0374 89.0519 36.6841 88.7546 37.9813C88.6546 38.9764 88.5063 39.9742 88.3086 40.972C88.1086 40.2733 87.6139 39.2265 86.8219 37.8318C86.7219 38.4299 86.4733 38.729 86.0785 38.729C85.1865 38.729 84.7405 38.2288 84.7405 37.2336C84.7405 36.2359 85.1356 35.7383 85.9299 35.7383C86.7219 35.7383 87.5139 36.785 88.3086 38.8781C88.8032 35.289 89.5466 33.4953 90.5386 33.4953C91.0333 33.4953 91.2819 33.9929 91.2819 34.9907ZM91.5792 12.8598C91.5792 14.0561 91.1332 14.6542 90.2412 14.6542C89.9439 14.6542 89.5466 14.4041 89.0519 13.9065C88.8519 14.7032 88.4059 15.1028 87.7139 15.1028C87.1192 15.1028 86.7706 14.7032 86.6732 13.9065C86.6732 13.2079 86.6732 12.5607 86.6732 11.9626C86.4733 12.2617 86.2759 12.5611 86.0785 12.8598V12.2617C86.2759 11.8628 86.7219 11.2643 87.4165 10.4673C87.2166 12.4602 87.4165 13.4579 88.0112 13.4579C88.5063 13.4579 88.7546 13.1073 88.7546 12.4112C88.7546 12.2101 88.6546 11.612 88.4572 10.6168L89.0519 9.86916C89.3492 10.2665 89.4979 10.9649 89.4979 11.9626C89.5956 12.6587 89.893 13.0093 90.3899 13.0093C90.6872 13.0093 90.8359 12.809 90.8359 12.4112C90.8359 12.3107 90.6872 11.6636 90.3899 10.4673L90.8359 9.27103C91.3306 10.5656 91.5792 11.7615 91.5792 12.8598ZM95.2959 11.215C95.2959 12.4112 95.0477 13.757 94.5526 15.2523C94.6503 14.4535 94.7013 13.5566 94.7013 12.5611C94.7013 10.7664 94.1553 9.36935 93.0659 8.37421L93.2146 6.43028C93.8093 6.93009 94.3043 7.67776 94.7013 8.67327C95.096 9.66804 95.2959 10.5163 95.2959 11.215ZM103.324 23.6262C103.324 25.7193 103.124 27.3133 102.729 28.4112H102.432C102.529 26.2172 102.381 23.9252 101.986 21.5331L99.4586 4.63589C99.2587 3.64037 99.0613 2.89271 98.864 2.3929L99.6073 0.299065L102.135 5.23364V6.13084L100.945 4.78467C100.845 4.98579 100.797 5.1843 100.797 5.38318L103.324 21.3832C103.324 21.8807 103.324 22.6284 103.324 23.6262ZM112.839 33.9436C112.937 34.8407 112.739 35.3387 112.244 35.4389C111.947 35.4389 111.449 35.2385 110.757 34.8407C110.361 35.5372 109.765 36.4344 108.973 37.5323C107.784 38.8265 106.297 39.6744 104.513 40.0744L103.324 40.2239C104.611 39.6254 106.098 38.6766 107.784 37.3824C109.271 36.1858 110.26 35.0385 110.757 33.9428C111.152 33.1439 111.449 32.6953 111.649 32.597C112.144 32.5981 112.541 33.0467 112.839 33.9436ZM111.947 7.17757C111.947 7.57682 111.798 8.02617 111.501 8.52336C111.203 8.2243 110.955 8.07514 110.757 8.07514C110.26 8.07514 109.866 8.72411 109.568 10.0187C109.368 11.1151 109.219 12.1125 109.122 13.0093C108.923 12.311 108.428 11.3136 107.636 10.0187C107.535 10.5166 107.239 10.7664 106.744 10.7664C105.949 10.7664 105.555 10.3181 105.555 9.42056C105.555 8.32449 105.901 7.7757 106.595 7.7757C107.487 7.7757 108.279 8.8228 108.974 10.9159C109.569 7.3271 110.312 5.53271 111.204 5.53271C111.698 5.53271 111.947 6.08187 111.947 7.17757ZM112.393 15.4019L111.351 17.0467C110.757 17.2449 110.111 17.4441 109.419 17.6449C108.327 17.9439 107.784 18.3925 107.784 18.9907C108.279 20.8834 108.527 22.2292 108.527 23.0284C108.527 24.8228 108.476 25.8695 108.379 26.1682C108.379 25.0699 108.179 23.6497 107.784 21.9069C107.387 20.1615 107.189 19.04 107.189 18.5424C107.189 17.5447 107.51 16.8976 108.156 16.5985C108.799 16.2994 109.419 16.0493 110.014 15.8508C109.517 15.6497 109.122 15.5518 108.825 15.5518C108.923 15.5518 108.625 15.7499 107.933 16.1499L108.081 15.4022C108.279 15.1032 108.502 14.7293 108.751 14.2807C108.997 13.8321 109.271 13.6079 109.568 13.6079C110.162 13.6075 111.104 14.2056 112.393 15.4019ZM112.541 34.3925C112.145 33.794 111.698 33.6449 111.203 33.9436C111.698 34.3409 112.144 34.4905 112.541 34.3925ZM115.663 30.3551C115.366 30.1544 114.92 29.7058 114.325 29.0093C114.325 29.5069 114.448 30.0789 114.696 30.729C114.943 31.3761 115.217 31.7009 115.514 31.7009C115.612 31.7006 115.663 31.2523 115.663 30.3551ZM192.079 36.6355C191.582 36.6355 191.235 36.3361 191.038 35.7387C190.343 36.6355 189.7 37.0845 189.105 37.0845C188.906 37.0845 188.586 36.935 188.139 36.6363C187.693 36.3364 187.419 36.1869 187.321 36.1869C186.824 36.1869 185.883 36.4867 184.496 37.0841C182.712 37.8807 181.274 38.4789 180.184 38.8789C178.003 39.5746 175.624 39.9252 173.048 39.9252L172.9 39.6262C175.079 39.6262 177.26 39.1772 179.442 38.28C180.631 37.8804 182.315 37.0837 184.497 35.8879C186.081 34.991 187.222 34.5417 187.916 34.5417C188.113 34.5417 188.411 34.7402 188.808 35.1402C189.203 35.5376 189.551 35.7387 189.849 35.7387C190.244 35.7387 190.69 35.2385 191.187 34.2434L191.633 33.9436C191.533 34.7409 191.781 35.1402 192.376 35.1402C192.674 35.1402 192.971 34.64 193.268 33.6449L193.565 33.4957C193.565 35.5888 193.068 36.6355 192.079 36.6355ZM203.823 9.42056C203.823 9.81794 203.623 10.3178 203.228 10.9159C202.931 10.5163 202.682 10.3178 202.485 10.3178C201.988 10.3178 201.593 11.0135 201.295 12.4112C201.195 13.3084 201.047 14.2546 200.85 15.2523C200.552 14.554 200.055 13.5566 199.363 12.2617C199.263 12.7596 198.966 13.0093 198.471 13.0093C197.677 13.0093 197.282 12.5611 197.282 11.6636C197.282 10.5652 197.629 10.0187 198.323 10.0187C199.215 10.0187 200.007 11.0658 200.701 13.1589C201.296 9.57009 202.039 7.7757 202.931 7.7757C203.526 7.7757 203.823 8.32486 203.823 9.42056ZM202.634 20.9346C202.634 22.729 202.088 23.6262 200.999 23.6262C200.007 23.6262 199.512 23.077 199.512 21.9813C199.512 21.283 199.709 20.4348 200.107 19.4393C200.702 18.243 200.999 17.5447 200.999 17.3458C201.196 18.1424 201.245 18.6916 201.147 18.9903C202.137 19.5888 202.634 20.2359 202.634 20.9346ZM202.188 21.6822C201.791 21.1824 201.196 20.7854 200.404 20.486C200.107 20.9839 199.958 21.283 199.958 21.3832C199.958 21.8807 200.304 22.1308 200.999 22.1308C201.493 22.1308 201.891 21.9813 202.188 21.6822ZM209.621 35.8879L208.581 38.28L206.053 36.9335L207.094 34.5417L209.621 35.8879Z" fill="white"/>
</svg>
