<svg width="28" height="28" viewBox="0 0 28 28" fill="none" xmlns="http://www.w3.org/2000/svg">
<g clip-path="url(#clip0_2112_1595)">
<path d="M25.6812 3.81589H18.8851C17.7491 3.81512 16.6467 4.2013 15.7595 4.91082C14.8724 5.62034 14.2533 6.61088 14.0044 7.71926C13.7548 6.61118 13.1356 5.621 12.2486 4.91159C11.3615 4.20217 10.2594 3.81575 9.12361 3.81589H2.33274C1.71389 3.81612 1.12046 4.06206 0.68287 4.49965C0.245281 4.93724 -0.000656917 5.53067 -0.000888824 6.14951V18.0985C-0.000656917 18.7174 0.245281 19.3108 0.68287 19.7484C1.12046 20.186 1.71389 20.4319 2.33274 20.4321H6.69286C11.6611 20.4321 13.1434 21.6178 13.853 24.0783C13.8871 24.2148 14.1059 24.2148 14.1444 24.0783C14.8592 21.6186 16.3415 20.4321 21.3045 20.4321H25.6646C26.2835 20.4319 26.8769 20.186 27.3145 19.7484C27.7521 19.3108 27.998 18.7174 27.9982 18.0985V6.15476C27.9983 5.53801 27.7546 4.94623 27.3203 4.50832C26.886 4.07041 26.2962 3.82184 25.6795 3.81676L25.6812 3.81589ZM11.7635 16.7169C11.7637 16.7392 11.7595 16.7614 11.751 16.7821C11.7426 16.8028 11.7301 16.8216 11.7143 16.8374C11.6985 16.8533 11.6797 16.8657 11.659 16.8742C11.6383 16.8826 11.6161 16.8869 11.5937 16.8866H3.80099C3.77866 16.8868 3.75654 16.8824 3.73589 16.874C3.71524 16.8655 3.69648 16.853 3.6807 16.8372C3.66491 16.8214 3.65241 16.8026 3.64392 16.782C3.63543 16.7613 3.63112 16.7392 3.63124 16.7169V15.6039C3.63124 15.512 3.70386 15.4341 3.80099 15.4341H11.5981C11.69 15.4341 11.7679 15.5068 11.7679 15.6039V16.7169H11.7635ZM11.7635 13.7568C11.7636 13.7791 11.7593 13.8012 11.7508 13.8219C11.7423 13.8425 11.7298 13.8613 11.714 13.8771C11.6982 13.8928 11.6795 13.9053 11.6588 13.9138C11.6382 13.9223 11.6161 13.9266 11.5937 13.9265H3.80099C3.77866 13.9266 3.75654 13.9223 3.73589 13.9138C3.71524 13.9053 3.69648 13.8928 3.6807 13.8771C3.66491 13.8613 3.65241 13.8425 3.64392 13.8219C3.63543 13.8012 3.63112 13.7791 3.63124 13.7568V12.6438C3.63124 12.551 3.70386 12.474 3.80099 12.474H11.5981C11.69 12.474 11.7679 12.5466 11.7679 12.6438V13.7568H11.7635ZM11.7635 10.7966C11.7636 10.819 11.7593 10.8411 11.7508 10.8617C11.7423 10.8824 11.7298 10.9011 11.714 10.9169C11.6982 10.9327 11.6795 10.9452 11.6588 10.9537C11.6382 10.9622 11.6161 10.9665 11.5937 10.9664H3.80099C3.77866 10.9665 3.75654 10.9622 3.73589 10.9537C3.71524 10.9452 3.69648 10.9327 3.6807 10.9169C3.66491 10.9011 3.65241 10.8824 3.64392 10.8617C3.63543 10.8411 3.63112 10.819 3.63124 10.7966V9.68364C3.63124 9.59176 3.70386 9.51389 3.80099 9.51389H11.5981C11.69 9.51389 11.7679 9.58651 11.7679 9.68364V10.7966H11.7635ZM24.3687 16.7125C24.3689 16.7348 24.3645 16.757 24.356 16.7776C24.3476 16.7983 24.3351 16.817 24.3193 16.8328C24.3035 16.8486 24.2847 16.8611 24.2641 16.8696C24.2434 16.8781 24.2213 16.8824 24.199 16.8823H16.4062C16.3839 16.8824 16.3618 16.8781 16.3411 16.8696C16.3205 16.8611 16.3017 16.8486 16.2859 16.8328C16.2702 16.817 16.2577 16.7983 16.2492 16.7776C16.2407 16.757 16.2364 16.7348 16.2365 16.7125V15.5995C16.2365 15.5076 16.3091 15.4298 16.4062 15.4298H24.2034C24.2961 15.4298 24.3731 15.5024 24.3731 15.5995V16.7125H24.3687ZM24.3687 13.7524C24.369 13.7747 24.3647 13.7969 24.3563 13.8176C24.3478 13.8383 24.3353 13.8571 24.3195 13.8729C24.3037 13.8888 24.2849 13.9012 24.2642 13.9097C24.2435 13.9181 24.2213 13.9224 24.199 13.9221H16.4062C16.3839 13.9223 16.3618 13.9179 16.3411 13.9095C16.3205 13.901 16.3017 13.8885 16.2859 13.8727C16.2702 13.8569 16.2577 13.8381 16.2492 13.8175C16.2407 13.7968 16.2364 13.7747 16.2365 13.7524V12.6394C16.2365 12.5475 16.3091 12.4696 16.4062 12.4696H24.2034C24.2961 12.4696 24.3731 12.5423 24.3731 12.6394V13.7524H24.3687ZM24.3687 10.7914C24.3689 10.8137 24.3645 10.8358 24.356 10.8565C24.3476 10.8771 24.3351 10.8959 24.3193 10.9117C24.3035 10.9275 24.2847 10.94 24.2641 10.9485C24.2434 10.9569 24.2213 10.9613 24.199 10.9611H16.4062C16.3839 10.9613 16.3618 10.9569 16.3411 10.9485C16.3205 10.94 16.3017 10.9275 16.2859 10.9117C16.2702 10.8959 16.2577 10.8771 16.2492 10.8565C16.2407 10.8358 16.2364 10.8137 16.2365 10.7914V9.68276C16.2365 9.59089 16.3091 9.51301 16.4062 9.51301H24.2034C24.2961 9.51301 24.3731 9.58564 24.3731 9.68276V10.7914H24.3687Z" fill="url(#paint0_linear_2112_1595)"/>
</g>
<defs>
<linearGradient id="paint0_linear_2112_1595" x1="-0.000888824" y1="3.81589" x2="19.3737" y2="30.4536" gradientUnits="userSpaceOnUse">
<stop stop-color="#DF98FA"/>
<stop offset="1" stop-color="#672CBC"/>
</linearGradient>
<clipPath id="clip0_2112_1595">
<rect width="28" height="28" fill="white"/>
</clipPath>
</defs>
</svg>
