<svg width="208" height="128" viewBox="0 0 208 128" fill="none" xmlns="http://www.w3.org/2000/svg">
<path opacity="0.25" d="M104.036 128C153.617 128 193.81 118.584 193.81 106.969C193.81 95.3533 153.617 85.9372 104.036 85.9372C54.4546 85.9372 14.2612 95.3533 14.2612 106.969C14.2612 118.584 54.4546 128 104.036 128Z" fill="#042030"/>
<path d="M174.344 5.47229L104.036 29.662L33.6565 5.47229L0 54.7131L104.036 90.531L208 54.7131L174.344 5.47229Z" fill="#4E2999"/>
<path opacity="0.45" d="M12.2646 52.7032L98.5451 85.9371L68.8817 56.364C68.8817 56.364 20.1796 44.5203 12.2646 52.7032Z" fill="#240F4F"/>
<path opacity="0.45" d="M195.807 52.7032L109.526 85.9371L139.19 56.364C139.118 56.364 187.82 44.5203 195.807 52.7032Z" fill="#240F4F"/>
<path d="M104.036 90.5311L0 54.7131V59.3787L104.036 95.1967L208 59.3787V54.7131L104.036 90.5311Z" fill="#994EF8"/>
<path d="M48.6308 112.065L60.6815 80.2666L99.4721 93.6176L48.6308 112.065Z" fill="#3B1E77"/>
<path opacity="0.45" d="M51.9822 102.877L99.4721 93.6176L60.6815 80.2666L51.9822 102.877Z" fill="#3B1E77"/>
<path d="M104.036 91.9667L48.6308 112.065L52.7666 116.444L104.036 98.0679L155.233 116.444L159.441 112.065L104.036 91.9667Z" fill="#994EF8"/>
<path d="M159.441 112.065L147.318 80.2666L108.528 93.6176L159.441 112.065Z" fill="#3B1E77"/>
<path opacity="0.45" d="M156.018 102.877L108.528 93.6176L147.318 80.2666L156.018 102.877Z" fill="#3B1E77"/>
<path d="M104.036 98.0679C106.123 98.0679 107.815 96.3647 107.815 94.2636C107.815 92.1625 106.123 90.4593 104.036 90.4593C101.948 90.4593 100.256 92.1625 100.256 94.2636C100.256 96.3647 101.948 98.0679 104.036 98.0679Z" fill="white" fill-opacity="0.5"/>
<path d="M171.349 5.47229L104.036 39.2087L36.7226 5.47229C33.6565 9.56372 8.98456 50.9805 8.98456 50.9805C9.26978 50.9805 9.4837 51.0523 9.76893 51.0523C71.6627 57.2971 88.8474 76.8929 94.5519 81.6304C100.256 86.4396 104.107 85.9372 104.107 85.9372C104.107 85.9372 107.957 86.4396 113.662 81.6304C119.366 76.8929 136.551 57.2971 198.445 51.0523C198.73 51.0523 198.944 50.9805 199.229 50.9805C199.087 50.9805 174.343 9.6355 171.349 5.47229Z" fill="#F5B304"/>
<path d="M199.087 50.9805C198.802 50.9805 198.588 51.0523 198.302 51.0523C136.409 57.2971 119.224 76.893 113.519 81.6304C107.815 86.4396 103.964 85.9372 103.964 85.9372C103.964 85.9372 100.114 86.4396 94.4093 81.6304C88.7048 76.893 71.5201 57.2971 9.62632 51.0523C9.3411 51.0523 9.12718 50.9805 8.84196 50.9805C8.34282 51.7701 8.84196 52.3443 8.84196 52.3443C71.3774 58.4456 87.9918 78.1132 93.6963 82.9224C99.4008 87.6599 103.893 87.301 103.893 87.301C103.893 87.301 108.385 87.6599 114.09 82.9224C119.794 78.185 136.409 58.5174 198.944 52.3443C199.087 52.3443 199.586 51.7701 199.087 50.9805Z" fill="#994EF8"/>
<path d="M168.782 1.52444C134.341 -6.80199 103.964 21.6945 103.964 21.6945C103.964 21.6945 73.5879 -6.80199 39.1471 1.52444C39.1471 1.52444 29.3781 16.5981 15.9013 42.2234C15.9013 42.2234 83.7134 49.9038 103.964 78.5439C124.215 49.9038 192.027 42.2234 192.027 42.2234C178.551 16.5981 168.782 1.52444 168.782 1.52444Z" fill="#F5EFFB"/>
<path d="M192.027 42.2234C192.027 42.2234 124.215 49.9039 103.964 78.5439C83.7847 49.9039 15.9726 42.2234 15.9726 42.2234C15.9726 42.2234 15.9726 44.5204 12.1933 49.0425C12.1933 49.0425 73.7305 53.4928 96.1206 79.1899C101.397 85.2194 103.964 84.5016 103.964 84.5016C103.964 84.5016 106.603 85.2194 111.808 79.1899C134.127 53.4928 195.735 49.0425 195.735 49.0425C192.027 44.4486 192.027 42.2234 192.027 42.2234Z" fill="#DFCBF4"/>
<path d="M164.931 4.53919C164.931 4.53919 139.19 -2.06454 103.964 25.427C68.8104 -1.99276 42.9976 4.53919 42.9976 4.53919L25.5989 38.5627C78.5081 42.2235 103.964 69.1408 103.964 69.1408C103.964 69.1408 129.421 42.2235 182.33 38.5627L164.931 4.53919ZM104.036 65.9107C104.036 65.9107 80.2194 41.3621 29.7347 36.5529L44.3524 5.97478C44.3524 5.97478 69.6661 1.02199 104.036 27.0062C138.405 1.02199 163.719 5.97478 163.719 5.97478L178.337 36.5529C127.852 41.3621 104.036 65.9107 104.036 65.9107Z" fill="#863ED5"/>
<path opacity="0.2" d="M110.525 51.0479C120.032 43.9896 149.743 28.37 169.709 30.5234" stroke="#863ED5" stroke-width="3" stroke-linecap="round"/>
<path opacity="0.2" d="M110.525 31.2412C118.962 24.5905 140.901 11.5598 161.152 12.6419" stroke="#863ED5" stroke-width="3" stroke-linecap="round"/>
<path opacity="0.2" d="M110.525 41.2903C119.675 34.1281 143.468 20.095 165.43 21.2603" stroke="#863ED5" stroke-width="3" stroke-linecap="round"/>
<path opacity="0.2" d="M98.4025 51.0479C88.895 43.9896 59.1841 28.37 39.2184 30.5234" stroke="#863ED5" stroke-width="3" stroke-linecap="round"/>
<path opacity="0.2" d="M98.4025 31.2412C89.9646 24.5905 68.026 11.5598 47.7751 12.6419" stroke="#863ED5" stroke-width="3" stroke-linecap="round"/>
<path opacity="0.2" d="M98.4025 41.2903C89.2515 34.1281 65.459 20.095 43.4967 21.2603" stroke="#863ED5" stroke-width="3" stroke-linecap="round"/>
<path d="M104.036 21.6945C104.036 21.6945 104.749 19.1822 106.104 19.9C106.104 19.9 105.248 60.599 106.674 76.4623C107.031 80.4101 110.453 85.7936 111.808 87.8034H110.025L109.526 89.4544C109.526 89.4544 104.25 80.4819 104.036 76.9647C102.966 61.1732 103.537 25.4988 104.036 21.6945Z" fill="#54DAF5"/>
</svg>
