<svg width="314" height="380" viewBox="0 0 314 380" fill="none" xmlns="http://www.w3.org/2000/svg">
<g style="mix-blend-mode:soft-light" opacity="0.5">
<path d="M-22 158.07H84.3C84.3 158.07 76.7 134.77 63.9 138.17C51.1 141.47 51.6 144.37 51.6 144.37C51.6 144.37 47.8 124.47 30.7 127.27C13.6 130.07 9.80002 143.87 9.80002 143.87C9.80002 143.87 -1.09999 139.57 -5.89999 143.87C-10.6 148.17 -9.69998 150.47 -9.69998 150.47C-9.69998 150.47 -20.1 145.77 -22 158.07Z" fill="white"/>
</g>
<g style="mix-blend-mode:soft-light" opacity="0.8">
<path d="M259 115.216C257.8 111.816 255.1 105.916 250.9 104.516C244.9 102.516 236 109.116 236 109.116C236 109.116 231.7 93.6161 217.3 93.0161C202.9 92.4161 205.5 108.816 205.5 108.816C205.5 108.816 201.8 107.716 194.3 105.416C186.8 103.116 184.2 110.016 184.2 110.016C179.5 108.316 177.6 112.816 177 115.216H259Z" fill="white"/>
</g>
<g clip-path="url(#clip0_1102_924)">
<path d="M47.7 15C47.7 15 47.5 17.6 45 17.9C47.5 18.2 47.7 20.8 47.7 20.8C47.7 20.8 47.9 18.2 50.4 17.9C47.9 17.7 47.7 15 47.7 15Z" fill="#FFD08A"/>
<path d="M181.7 56C181.7 56 181.5 58.6 179 58.9C181.5 59.2 181.7 61.8 181.7 61.8C181.7 61.8 181.9 59.2 184.4 58.9C181.9 58.7 181.7 56 181.7 56Z" fill="#FFD08A"/>
<path d="M83.7 46C83.7 46 83.5 48.6 81 48.9C83.5 49.2 83.7 51.8 83.7 51.8C83.7 51.8 83.9 49.2 86.4 48.9C83.9 48.7 83.7 46 83.7 46Z" fill="#FFD08A"/>
<path d="M303.7 115C303.7 115 303.5 117.6 301 117.9C303.5 118.2 303.7 120.8 303.7 120.8C303.7 120.8 303.9 118.2 306.4 117.9C303.8 117.7 303.7 115 303.7 115Z" fill="#FFD08A"/>
<path d="M187.3 174.6C187.3 174.6 187.1 177.2 184.6 177.5C187.1 177.8 187.3 180.4 187.3 180.4C187.3 180.4 187.5 177.8 190 177.5C187.4 177.3 187.3 174.6 187.3 174.6Z" fill="#FFD08A"/>
<path d="M143.1 85C143.1 85 142.6 92 136 92.6C142.6 93.3 143.1 100.2 143.1 100.2C143.1 100.2 143.6 93.2 150.2 92.6C143.6 92 143.1 85 143.1 85Z" fill="#FFD08A"/>
<path d="M19.1 73.7C19.1 73.7 18.6 80.7 12 81.3C18.6 82 19.1 88.9 19.1 88.9C19.1 88.9 19.6 81.9 26.2 81.3C19.6 80.7 19.1 73.7 19.1 73.7Z" fill="#FFD08A"/>
<path d="M136.2 15C136.2 15 135.8 20.1 131 20.6C135.8 21.1 136.2 26.2 136.2 26.2C136.2 26.2 136.6 21.1 141.4 20.6C136.6 20 136.2 15 136.2 15Z" fill="#FFD08A"/>
<path d="M62.6 110C62.6 110 62.3 114.5 58 115C62.3 115.4 62.6 120 62.6 120C62.6 120 62.9 115.5 67.2 115C63 114.5 62.6 110 62.6 110Z" fill="#FFD08A"/>
<path d="M103.5 209.9C103.5 209.9 103.2 214.4 98.9 214.9C103.2 215.3 103.5 219.9 103.5 219.9C103.5 219.9 103.8 215.4 108.1 214.9C103.8 214.4 103.5 209.9 103.5 209.9Z" fill="#FFD08A"/>
</g>
<g style="mix-blend-mode:soft-light" opacity="0.5">
<path d="M229.8 183.5H336.1C336.1 183.5 328.5 160.2 315.7 163.6C302.9 166.9 303.4 169.8 303.4 169.8C303.4 169.8 299.6 149.9 282.5 152.7C265.4 155.5 261.6 169.3 261.6 169.3C261.6 169.3 250.7 165 245.9 169.3C241.2 173.6 242.1 175.9 242.1 175.9C242.1 175.9 231.7 171.2 229.8 183.5Z" fill="white"/>
</g>
<path opacity="0.25" d="M156.9 379.8C226.433 379.8 282.8 366.682 282.8 350.5C282.8 334.318 226.433 321.2 156.9 321.2C87.3674 321.2 31 334.318 31 350.5C31 366.682 87.3674 379.8 156.9 379.8Z" fill="#042030"/>
<path d="M255.5 209.1L156.9 242.8L58.2 209.1L11 277.7L156.9 327.6L302.7 277.7L255.5 209.1Z" fill="#4E2999"/>
<path opacity="0.45" d="M28.2 274.9L149.2 321.2L107.6 280C107.6 280 39.3 263.5 28.2 274.9Z" fill="#240F4F"/>
<path opacity="0.45" d="M285.6 274.9L164.6 321.2L206.2 280C206.1 280 274.4 263.5 285.6 274.9Z" fill="#240F4F"/>
<path d="M156.9 327.6L11 277.7V284.2L156.9 334.1L302.7 284.2V277.7L156.9 327.6Z" fill="#994EF8"/>
<path d="M79.2 357.6L96.1 313.3L150.5 331.9L79.2 357.6Z" fill="#3B1E77"/>
<path opacity="0.45" d="M83.9 344.8L150.5 331.9L96.1 313.3L83.9 344.8Z" fill="#3B1E77"/>
<path d="M156.9 329.6L79.2 357.6L85 363.7L156.9 338.1L228.7 363.7L234.6 357.6L156.9 329.6Z" fill="#994EF8"/>
<path d="M234.6 357.6L217.6 313.3L163.2 331.9L234.6 357.6Z" fill="#3B1E77"/>
<path opacity="0.45" d="M229.8 344.8L163.2 331.9L217.6 313.3L229.8 344.8Z" fill="#3B1E77"/>
<path d="M156.9 338.1C159.827 338.1 162.2 335.727 162.2 332.8C162.2 329.873 159.827 327.5 156.9 327.5C153.973 327.5 151.6 329.873 151.6 332.8C151.6 335.727 153.973 338.1 156.9 338.1Z" fill="white" fill-opacity="0.5"/>
<path d="M251.3 209.1L156.9 256.1L62.5 209.1C58.2 214.8 23.6 272.5 23.6 272.5C24 272.5 24.3 272.6 24.7 272.6C111.5 281.3 135.6 308.6 143.6 315.2C151.6 321.9 157 321.2 157 321.2C157 321.2 162.4 321.9 170.4 315.2C178.4 308.6 202.5 281.3 289.3 272.6C289.7 272.6 290 272.5 290.4 272.5C290.2 272.5 255.5 214.9 251.3 209.1Z" fill="#F5B304"/>
<path d="M290.2 272.5C289.8 272.5 289.5 272.6 289.1 272.6C202.3 281.3 178.2 308.6 170.2 315.2C162.2 321.9 156.8 321.2 156.8 321.2C156.8 321.2 151.4 321.9 143.4 315.2C135.4 308.6 111.3 281.3 24.5 272.6C24.1 272.6 23.8 272.5 23.4 272.5C22.7 273.6 23.4 274.4 23.4 274.4C111.1 282.9 134.4 310.3 142.4 317C150.4 323.6 156.7 323.1 156.7 323.1C156.7 323.1 163 323.6 171 317C179 310.4 202.3 283 290 274.4C290.2 274.4 290.9 273.6 290.2 272.5Z" fill="#994EF8"/>
<path d="M247.7 203.6C199.4 192 156.8 231.7 156.8 231.7C156.8 231.7 114.2 192 65.9 203.6C65.9 203.6 52.2 224.6 33.3 260.3C33.3 260.3 128.4 271 156.8 310.9C185.2 271 280.3 260.3 280.3 260.3C261.4 224.6 247.7 203.6 247.7 203.6Z" fill="#F5EFFB"/>
<path d="M280.3 260.3C280.3 260.3 185.2 271 156.8 310.9C128.5 271 33.4 260.3 33.4 260.3C33.4 260.3 33.4 263.5 28.1 269.8C28.1 269.8 114.4 276 145.8 311.8C153.2 320.2 156.8 319.2 156.8 319.2C156.8 319.2 160.5 320.2 167.8 311.8C199.1 276 285.5 269.8 285.5 269.8C280.3 263.4 280.3 260.3 280.3 260.3Z" fill="#DFCBF4"/>
<path d="M242.3 207.8C242.3 207.8 206.2 198.6 156.8 236.9C107.5 198.7 71.3 207.8 71.3 207.8L46.9 255.2C121.1 260.3 156.8 297.8 156.8 297.8C156.8 297.8 192.5 260.3 266.7 255.2L242.3 207.8ZM156.9 293.3C156.9 293.3 123.5 259.1 52.7 252.4L73.2 209.8C73.2 209.8 108.7 202.9 156.9 239.1C205.1 202.9 240.6 209.8 240.6 209.8L261.1 252.4C190.3 259.1 156.9 293.3 156.9 293.3Z" fill="#863ED5"/>
<path opacity="0.2" d="M166 272.594C179.333 262.76 221 241 249 244" stroke="#863ED5" stroke-width="3" stroke-linecap="round"/>
<path opacity="0.2" d="M166 245C177.833 235.735 208.6 217.581 237 219.088" stroke="#863ED5" stroke-width="3" stroke-linecap="round"/>
<path opacity="0.2" d="M166 259C178.833 249.022 212.2 229.472 243 231.095" stroke="#863ED5" stroke-width="3" stroke-linecap="round"/>
<path opacity="0.2" d="M149 272.594C135.667 262.76 94 241 66 244" stroke="#863ED5" stroke-width="3" stroke-linecap="round"/>
<path opacity="0.2" d="M149 245C137.167 235.735 106.4 217.581 78 219.088" stroke="#863ED5" stroke-width="3" stroke-linecap="round"/>
<path opacity="0.2" d="M149 259C136.167 249.022 102.8 229.472 72 231.095" stroke="#863ED5" stroke-width="3" stroke-linecap="round"/>
<path d="M156.9 231.7C156.9 231.7 157.9 228.2 159.8 229.2C159.8 229.2 158.6 285.9 160.6 308C161.1 313.5 165.9 321 167.8 323.8H165.3L164.6 326.1C164.6 326.1 157.2 313.6 156.9 308.7C155.4 286.7 156.2 237 156.9 231.7Z" fill="#54DAF5"/>
<defs>
<clipPath id="clip0_1102_924">
<rect width="294" height="220" fill="white" transform="translate(12)"/>
</clipPath>
</defs>
</svg>
